<?xml version="1.0" standalone="no"?>
<!DOCTYPE svg PUBLIC "-//W3C//DTD SVG 20010904//EN"
 "http://www.w3.org/TR/2001/REC-SVG-20010904/DTD/svg10.dtd">
<svg version="1.0" xmlns="http://www.w3.org/2000/svg"
 width="276.000000pt" height="276.000000pt" viewBox="0 0 276.000000 276.000000"
 preserveAspectRatio="xMidYMid meet">
<metadata>
Created by potrace 1.11, written by Peter Selinger 2001-2013
</metadata>
<g transform="translate(0.000000,276.000000) scale(0.100000,-0.100000)"
fill="#000000" stroke="none">
<path d="M1325 2715 c-33 -17 -116 -61 -185 -97 -69 -36 -201 -105 -295 -153
-93 -48 -206 -107 -250 -130 -44 -23 -165 -86 -270 -140 -104 -54 -194 -101
-200 -106 -6 -5 -10 -243 -10 -680 l1 -672 94 -55 c52 -30 114 -65 137 -78 23
-13 90 -53 150 -88 130 -76 505 -293 663 -384 19 -11 79 -45 132 -77 l98 -57
72 42 c40 24 87 50 103 60 17 9 73 42 125 72 52 31 113 66 135 79 22 12 87 50
145 84 58 34 125 73 150 87 25 14 122 70 216 125 94 55 177 103 185 107 8 4
23 12 34 19 11 7 39 23 63 36 l42 25 -2 679 -3 679 -140 72 c-143 73 -437 226
-580 301 -198 104 -521 271 -535 276 -8 3 -42 -9 -75 -26z"/>
</g>
</svg>
